<svg width="168" height="204" viewBox="0 0 168 204" fill="none" xmlns="http://www.w3.org/2000/svg">
<g filter="url(#filter0_d_1550_11070)">
<path d="M94.2622 173.059C31.1663 102.476 34.7952 36.3211 76.9793 15.6731C78.8437 14.7605 78.8882 11.958 76.9782 11.1451C76.3128 10.8619 75.5401 10.9136 74.9191 11.2843C27.3952 39.6491 30.1504 100.167 89.1133 177.301L94.2622 173.059Z" fill="#92D5F1"/>
<path d="M101.508 190.207C103.055 191.028 104.836 189.606 104.377 187.916L99.89 171.395C99.5128 170.007 97.8365 169.459 96.7119 170.357L86.0804 178.846C84.9559 179.744 85.1192 181.5 86.3901 182.175L101.508 190.207Z" fill="#92D5F1"/>
</g>
<defs>
<filter id="filter0_d_1550_11070" x="31.8301" y="0.964355" width="82.6201" height="199.482" filterUnits="userSpaceOnUse" color-interpolation-filters="sRGB">
<feFlood flood-opacity="0" result="BackgroundImageFix"/>
<feColorMatrix in="SourceAlpha" type="matrix" values="0 0 0 0 0 0 0 0 0 0 0 0 0 0 0 0 0 0 127 0" result="hardAlpha"/>
<feOffset/>
<feGaussianBlur stdDeviation="5"/>
<feComposite in2="hardAlpha" operator="out"/>
<feColorMatrix type="matrix" values="0 0 0 0 0.572549 0 0 0 0 0.835294 0 0 0 0 0.945098 0 0 0 1 0"/>
<feBlend mode="normal" in2="BackgroundImageFix" result="effect1_dropShadow_1550_11070"/>
<feBlend mode="normal" in="SourceGraphic" in2="effect1_dropShadow_1550_11070" result="shape"/>
</filter>
</defs>
</svg>
