<svg width="175" height="236" viewBox="0 0 175 236" fill="none" xmlns="http://www.w3.org/2000/svg">
<circle cx="88.4271" cy="92.5629" r="57.8461" fill="url(#paint0_linear_1550_10077)"/>
<g filter="url(#filter0_i_1550_10077)">
<path d="M64.7496 65.154C66.8928 60.0097 71.1796 59.5811 74.6092 59.5811C82.7542 59.5811 74.6091 71.1557 68.6075 75.0139C63.4634 78.3208 63.4241 68.3355 64.7496 65.154Z" fill="url(#paint1_linear_1550_10077)" fill-opacity="0.5"/>
</g>
<g filter="url(#filter1_i_1550_10077)">
<path d="M102.062 53.8008C105.797 48.5505 123.925 55.087 126.497 60.2312C129.713 66.6616 112.905 68.805 106.349 66.2329C100.656 63.9994 99.7586 57.0389 102.062 53.8008Z" fill="url(#paint2_linear_1550_10077)" fill-opacity="0.5"/>
</g>
<g filter="url(#filter2_i_1550_10077)">
<path d="M98.3584 73.6641C97.9297 77.951 100.502 83.0952 106.075 80.0944C113.372 76.1649 98.9586 67.6623 98.3584 73.6641Z" fill="url(#paint3_linear_1550_10077)" fill-opacity="0.5"/>
</g>
<g filter="url(#filter3_i_1550_10077)">
<path d="M42.5604 102.435C39.6124 103.271 39.958 108.325 45.4849 111.41C48.661 113.182 47.4485 101.049 42.5604 102.435Z" fill="url(#paint4_linear_1550_10077)" fill-opacity="0.5"/>
</g>
<g filter="url(#filter4_i_1550_10077)">
<path d="M97.6404 126.485C92.0677 127.072 86.0655 137.631 88.6379 140.203C92.6118 144.177 105.786 125.628 97.6404 126.485Z" fill="url(#paint5_linear_1550_10077)" fill-opacity="0.5"/>
</g>
<path d="M79.9869 140.945C79.5134 140.982 79.116 140.982 78.8076 140.959C79.1603 140.942 79.558 140.936 79.9869 140.945C82.3654 140.762 86.6634 139.675 91.2396 136.243C98.0987 131.099 103.243 145.674 115.246 140.53C127.25 135.386 131.536 123.382 137.967 127.669C144.397 131.956 142.682 156.391 117.39 153.819C116.104 155.105 112.674 156.906 109.245 153.819C104.815 158.392 94.5834 163.079 89.0962 145.245C88.1882 141.916 83.2074 141.013 79.9869 140.945Z" fill="white"/>
<path d="M143.968 58.6494C143.11 54.4354 134.324 53.578 132.609 55.2927C138.611 63.4378 143.11 75.9399 143.11 79.6553C135.565 80.6841 132.536 86.0856 131.964 88.6578C119.961 87.3717 115.674 95.0881 109.673 92.0873C89.0955 81.4558 83.9512 88.2291 83.9512 92.9447C85.6659 90.8012 89.9528 86.943 94.6684 92.9447C103.585 105.634 108.387 102.233 109.673 98.9463C118.589 112.321 125.677 105.948 128.106 101.09C153.485 111.721 158.4 99.5179 157.686 92.0873C168.66 86.2571 163.973 80.5126 160.258 78.3692C163.688 67.0518 155.685 63.9366 151.256 63.7937C150.913 58.3065 146.254 58.0778 143.968 58.6494Z" fill="white"/>
<path d="M62.9443 39.3592C54.3703 39.3592 58.6574 49.6477 63.8017 45.3609C68.9459 52.22 75.0906 50.2193 77.5199 48.3617C87.4655 55.5636 95.0962 51.3625 97.6683 48.3617C101.098 50.7623 103.956 49.3619 104.956 48.3617C110.1 52.1341 114.816 49.9335 116.531 48.3617C119.532 52.6486 123.581 52.2199 125.962 50.0764C130.249 46.2182 125.247 42.7887 122.104 42.36C118.674 32.0714 108.1 32.3573 103.241 33.7862C102.212 31.3856 97.6683 30.7854 96.8109 32.0715C85.8365 22.1259 76.2338 29.0707 72.8043 33.7862C65.2594 31.3856 63.0873 36.5013 62.9443 39.3592Z" fill="white"/>
<path d="M44.0823 107.521C33.794 90.8021 20.9333 99.8046 20.0757 106.664C4.29986 113.523 16.6461 127.526 24.7912 133.671C22.6478 143.531 31.6503 147.389 38.938 146.532C46.2257 145.674 45.3684 148.675 51.7987 149.533C68.9466 151.819 60.3728 134.261 72.3761 132.385C85.1178 130.394 75.3769 111.808 89.5237 110.951C100.841 110.265 103.956 106.664 104.528 104.52C103.156 107.264 94.5248 107.664 90.3808 107.521C82.4929 100.319 76.5198 105.378 74.5193 108.807C69.032 106.406 65.6597 109.807 64.6594 111.808C59.5151 102.205 48.7979 104.949 44.0823 107.521Z" fill="white"/>
<path d="M143.11 30.357C140.067 30.0366 137.729 32.6418 136.573 34.8347C136.368 35.2237 136.49 35.7089 136.832 35.9858C148.349 45.3172 151.122 31.2003 143.11 30.357Z" fill="white"/>
<path d="M2.07087 117.81C-0.787064 119.096 -3.93075 122.525 -0.50125 125.097C4.26321 128.671 8.50123 115.238 2.07087 117.81Z" fill="white"/>
<path d="M147.919 47.2659C146.871 49.7692 146.909 53.7977 150.6 53.3978C155.727 52.8423 150.468 41.8369 147.919 47.2659Z" fill="white"/>
<path d="M8.07255 128.527C4.64309 129.143 -0.930219 138.56 7.21518 142.245C25.4365 150.489 25.2203 125.449 8.07255 128.527Z" fill="white"/>
<path d="M172.69 95.9467C168.832 92.0886 161.201 96.8041 160.258 101.52C158.972 107.95 155.971 105.807 151.684 108.807C147.398 111.808 147.826 117.381 154.685 118.667C162.735 120.177 160.687 111.38 164.116 110.522C174.834 107.843 177.406 100.662 172.69 95.9467Z" fill="white"/>
<path d="M39.4865 15.16C38.0892 15.16 37.0065 14.7973 36.2385 14.072C35.4812 13.336 35.0812 12.232 35.0385 10.76C35.0278 10.44 35.0225 9.98667 35.0225 9.4C35.0225 8.81333 35.0278 8.36533 35.0385 8.056C35.0812 6.616 35.4972 5.52267 36.2865 4.776C37.0758 4.01867 38.1425 3.64 39.4865 3.64C40.8198 3.64 41.8812 4.01867 42.6705 4.776C43.4598 5.52267 43.8758 6.616 43.9185 8.056C43.9398 8.67467 43.9505 9.12267 43.9505 9.4C43.9505 9.66667 43.9398 10.12 43.9185 10.76C43.8758 12.232 43.4705 13.336 42.7025 14.072C41.9452 14.7973 40.8732 15.16 39.4865 15.16ZM39.4865 13.8C40.3292 13.8 41.0012 13.544 41.5025 13.032C42.0038 12.52 42.2758 11.736 42.3185 10.68C42.3398 10.04 42.3505 9.61333 42.3505 9.4C42.3505 9.16533 42.3398 8.73867 42.3185 8.12C42.2758 7.064 41.9985 6.28 41.4865 5.768C40.9852 5.256 40.3185 5 39.4865 5C38.6438 5 37.9665 5.256 37.4545 5.768C36.9532 6.28 36.6812 7.064 36.6385 8.12C36.6278 8.42933 36.6225 8.856 36.6225 9.4C36.6225 9.93333 36.6278 10.36 36.6385 10.68C36.6812 11.736 36.9532 12.52 37.4545 13.032C37.9665 13.544 38.6438 13.8 39.4865 13.8ZM49.4346 15.16C48.2933 15.16 47.3973 14.84 46.7466 14.2C46.1066 13.5493 45.7653 12.6427 45.7226 11.48L45.7066 10.84L45.7226 10.2C45.7653 9.03733 46.1066 8.136 46.7466 7.496C47.3973 6.84533 48.2933 6.52 49.4346 6.52C50.2026 6.52 50.8533 6.65867 51.3866 6.936C51.92 7.21333 52.3146 7.55467 52.5706 7.96C52.8373 8.36533 52.9813 8.77067 53.0026 9.176C53.0133 9.28267 52.9813 9.368 52.9066 9.432C52.832 9.496 52.7413 9.528 52.6346 9.528H51.8666C51.76 9.528 51.68 9.50667 51.6266 9.464C51.5733 9.42133 51.52 9.336 51.4666 9.208C51.2853 8.696 51.0293 8.33333 50.6986 8.12C50.368 7.896 49.952 7.784 49.4506 7.784C48.7893 7.784 48.2613 7.992 47.8666 8.408C47.4826 8.81333 47.2746 9.43733 47.2426 10.28L47.2266 10.856L47.2426 11.4C47.2746 12.2533 47.4826 12.8827 47.8666 13.288C48.2506 13.6933 48.7786 13.896 49.4506 13.896C49.952 13.896 50.368 13.7893 50.6986 13.576C51.0293 13.352 51.2853 12.984 51.4666 12.472C51.52 12.344 51.5733 12.2587 51.6266 12.216C51.68 12.1627 51.76 12.136 51.8666 12.136H52.6346C52.7413 12.136 52.832 12.1733 52.9066 12.248C52.9813 12.312 53.0133 12.3973 53.0026 12.504C52.9813 12.8987 52.8373 13.304 52.5706 13.72C52.3146 14.1253 51.92 14.4667 51.3866 14.744C50.864 15.0213 50.2133 15.16 49.4346 15.16ZM55.2708 15C55.1641 15 55.0734 14.968 54.9988 14.904C54.9348 14.8293 54.9028 14.7387 54.9028 14.632V7.048C54.9028 6.94133 54.9348 6.856 54.9988 6.792C55.0734 6.71733 55.1641 6.68 55.2708 6.68H56.0388C56.1454 6.68 56.2308 6.71733 56.2948 6.792C56.3694 6.856 56.4068 6.94133 56.4068 7.048V10.12H60.7588V7.048C60.7588 6.94133 60.7908 6.856 60.8548 6.792C60.9294 6.71733 61.0201 6.68 61.1268 6.68H61.8788C61.9854 6.68 62.0708 6.71733 62.1348 6.792C62.2094 6.856 62.2468 6.94133 62.2468 7.048V14.632C62.2468 14.7387 62.2094 14.8293 62.1348 14.904C62.0708 14.968 61.9854 15 61.8788 15H61.1268C61.0201 15 60.9294 14.968 60.8548 14.904C60.7908 14.8293 60.7588 14.7387 60.7588 14.632V11.4H56.4068V14.632C56.4068 14.7387 56.3694 14.8293 56.2948 14.904C56.2308 14.968 56.1454 15 56.0388 15H55.2708ZM68.0608 15.16C66.8874 15.16 65.9754 14.8293 65.3248 14.168C64.6848 13.5067 64.3434 12.6267 64.3008 11.528L64.2848 10.84L64.3008 10.152C64.3434 9.064 64.6901 8.18933 65.3408 7.528C65.9914 6.856 66.8981 6.52 68.0608 6.52C69.2234 6.52 70.1301 6.856 70.7808 7.528C71.4314 8.18933 71.7781 9.064 71.8208 10.152C71.8314 10.2693 71.8368 10.4987 71.8368 10.84C71.8368 11.1813 71.8314 11.4107 71.8208 11.528C71.7781 12.6267 71.4314 13.5067 70.7808 14.168C70.1408 14.8293 69.2341 15.16 68.0608 15.16ZM68.0608 13.928C68.7328 13.928 69.2608 13.7147 69.6448 13.288C70.0394 12.8613 70.2528 12.248 70.2848 11.448C70.2954 11.3413 70.3008 11.1387 70.3008 10.84C70.3008 10.5413 70.2954 10.3387 70.2848 10.232C70.2528 9.432 70.0394 8.81867 69.6448 8.392C69.2608 7.96533 68.7328 7.752 68.0608 7.752C67.3888 7.752 66.8554 7.96533 66.4608 8.392C66.0661 8.81867 65.8581 9.432 65.8368 10.232L65.8207 10.84L65.8368 11.448C65.8581 12.248 66.0661 12.8613 66.4608 13.288C66.8554 13.7147 67.3888 13.928 68.0608 13.928ZM74.2083 15C74.1016 15 74.0109 14.968 73.9363 14.904C73.8723 14.8293 73.8403 14.7387 73.8403 14.632V7.048C73.8403 6.94133 73.8723 6.856 73.9363 6.792C74.0109 6.71733 74.1016 6.68 74.2083 6.68H77.5363C78.5176 6.68 79.2643 6.88267 79.7763 7.288C80.2989 7.68267 80.5603 8.22667 80.5603 8.92C80.5603 9.37867 80.4749 9.736 80.3043 9.992C80.1336 10.2373 79.8723 10.4507 79.5203 10.632C79.9043 10.792 80.2029 11.0587 80.4163 11.432C80.6403 11.8053 80.7523 12.2053 80.7523 12.632C80.7523 13.4 80.4803 13.9867 79.9363 14.392C79.4029 14.7973 78.6456 15 77.6643 15H74.2083ZM77.4403 10.216C77.9629 10.216 78.3736 10.104 78.6723 9.88C78.9709 9.656 79.1203 9.34133 79.1203 8.936C79.1203 8.54133 78.9763 8.264 78.6883 8.104C78.4003 7.93333 77.9843 7.848 77.4403 7.848H75.3123V10.216H77.4403ZM77.5363 13.832C78.0696 13.832 78.4856 13.7307 78.7843 13.528C79.0936 13.3253 79.2483 13.0267 79.2483 12.632C79.2483 12.2053 79.1096 11.896 78.8323 11.704C78.5549 11.5013 78.1229 11.4 77.5363 11.4H75.3123V13.832H77.5363ZM83.177 15C83.0703 15 82.9797 14.968 82.905 14.904C82.841 14.8293 82.809 14.7387 82.809 14.632V7.048C82.809 6.94133 82.841 6.856 82.905 6.792C82.9797 6.71733 83.0703 6.68 83.177 6.68H83.945C84.0517 6.68 84.137 6.71733 84.201 6.792C84.2757 6.856 84.313 6.94133 84.313 7.048V9.4H85.977C87.033 9.4 87.817 9.65067 88.329 10.152C88.8517 10.6427 89.113 11.3413 89.113 12.248C89.113 13.1867 88.8357 13.88 88.281 14.328C87.737 14.776 86.905 15 85.785 15H83.177ZM90.617 15C90.5103 15 90.4197 14.968 90.345 14.904C90.281 14.8293 90.249 14.7387 90.249 14.632V7.048C90.249 6.94133 90.281 6.856 90.345 6.792C90.4197 6.71733 90.5103 6.68 90.617 6.68H91.385C91.4917 6.68 91.577 6.71733 91.641 6.792C91.7157 6.856 91.753 6.94133 91.753 7.048V14.632C91.753 14.7387 91.7157 14.8293 91.641 14.904C91.577 14.968 91.4917 15 91.385 15H90.617ZM85.833 13.8C86.4943 13.8 86.969 13.6827 87.257 13.448C87.5557 13.2133 87.705 12.8133 87.705 12.248C87.705 11.6827 87.5557 11.2667 87.257 11C86.969 10.7333 86.4943 10.6 85.833 10.6H84.297V13.8H85.833ZM101.867 15.16C100.982 15.16 100.214 15.0213 99.563 14.744C98.923 14.4667 98.4323 14.104 98.091 13.656C97.7497 13.1973 97.5683 12.7067 97.547 12.184C97.547 12.0987 97.579 12.024 97.643 11.96C97.7177 11.8853 97.803 11.848 97.899 11.848H98.715C98.9177 11.848 99.0563 11.9547 99.131 12.168C99.227 12.616 99.499 13 99.947 13.32C100.406 13.64 101.046 13.8 101.867 13.8C102.752 13.8 103.419 13.6453 103.867 13.336C104.315 13.016 104.539 12.5733 104.539 12.008C104.539 11.6453 104.427 11.352 104.203 11.128C103.99 10.904 103.67 10.7067 103.243 10.536C102.816 10.3653 102.176 10.152 101.323 9.896C100.491 9.66133 99.8297 9.41067 99.339 9.144C98.8483 8.87733 98.4803 8.54667 98.235 8.152C97.9897 7.75733 97.867 7.26133 97.867 6.664C97.867 6.088 98.0217 5.57067 98.331 5.112C98.651 4.65333 99.1043 4.296 99.691 4.04C100.278 3.77333 100.976 3.64 101.787 3.64C102.619 3.64 103.334 3.78933 103.931 4.088C104.528 4.376 104.982 4.744 105.291 5.192C105.6 5.64 105.766 6.088 105.787 6.536C105.787 6.62133 105.755 6.696 105.691 6.76C105.638 6.824 105.558 6.856 105.451 6.856H104.603C104.379 6.856 104.24 6.75467 104.187 6.552C104.123 6.104 103.872 5.736 103.435 5.448C102.998 5.14933 102.448 5 101.787 5C101.062 5 100.491 5.13867 100.075 5.416C99.659 5.69333 99.451 6.104 99.451 6.648C99.451 7.01067 99.547 7.30933 99.739 7.544C99.9417 7.77867 100.246 7.98667 100.651 8.168C101.056 8.33867 101.648 8.536 102.427 8.76C103.334 9.00533 104.048 9.26133 104.571 9.528C105.094 9.784 105.483 10.1093 105.739 10.504C105.995 10.888 106.123 11.3787 106.123 11.976C106.123 12.968 105.739 13.7467 104.971 14.312C104.203 14.8773 103.168 15.16 101.867 15.16ZM110.22 15C110.081 15 109.975 14.968 109.9 14.904C109.825 14.84 109.761 14.7387 109.708 14.6L107.436 7.176L107.404 7.016C107.404 6.92 107.436 6.84 107.5 6.776C107.575 6.712 107.655 6.68 107.74 6.68H108.444C108.551 6.68 108.636 6.712 108.7 6.776C108.775 6.82933 108.823 6.888 108.844 6.952L110.62 12.984L112.524 7.016C112.545 6.93067 112.593 6.856 112.668 6.792C112.743 6.71733 112.844 6.68 112.972 6.68H113.516C113.644 6.68 113.745 6.71733 113.82 6.792C113.895 6.856 113.943 6.93067 113.964 7.016L115.868 12.984L117.644 6.952C117.655 6.89867 117.692 6.84 117.756 6.776C117.831 6.712 117.921 6.68 118.028 6.68H118.748C118.833 6.68 118.908 6.712 118.972 6.776C119.036 6.84 119.068 6.92 119.068 7.016L119.036 7.176L116.78 14.6C116.727 14.7387 116.663 14.84 116.588 14.904C116.513 14.968 116.401 15 116.252 15H115.628C115.34 15 115.164 14.8667 115.1 14.6L113.244 8.872L111.388 14.6C111.303 14.8667 111.121 15 110.844 15H110.22ZM121.08 5.128C120.974 5.128 120.883 5.096 120.808 5.032C120.744 4.95733 120.712 4.86667 120.712 4.76V3.896C120.712 3.78933 120.744 3.69867 120.808 3.624C120.883 3.54933 120.974 3.512 121.08 3.512H122.088C122.195 3.512 122.286 3.54933 122.36 3.624C122.435 3.69867 122.472 3.78933 122.472 3.896V4.76C122.472 4.86667 122.435 4.95733 122.36 5.032C122.286 5.096 122.195 5.128 122.088 5.128H121.08ZM121.208 15C121.102 15 121.011 14.968 120.936 14.904C120.872 14.8293 120.84 14.7387 120.84 14.632V7.048C120.84 6.94133 120.872 6.856 120.936 6.792C121.011 6.71733 121.102 6.68 121.208 6.68H121.976C122.083 6.68 122.168 6.71733 122.232 6.792C122.307 6.856 122.344 6.94133 122.344 7.048V14.632C122.344 14.7387 122.307 14.8293 122.232 14.904C122.168 14.968 122.083 15 121.976 15H121.208ZM125.915 15C125.809 15 125.718 14.968 125.643 14.904C125.579 14.8293 125.547 14.7387 125.547 14.632V7.96H124.187C124.081 7.96 123.99 7.928 123.915 7.864C123.851 7.78933 123.819 7.69867 123.819 7.592V7.048C123.819 6.94133 123.851 6.856 123.915 6.792C123.99 6.71733 124.081 6.68 124.187 6.68H125.547V5.88C125.547 4.06667 126.465 3.16 128.299 3.16H129.259C129.366 3.16 129.451 3.19733 129.515 3.272C129.59 3.336 129.627 3.42133 129.627 3.528V4.072C129.627 4.17867 129.59 4.26933 129.515 4.344C129.451 4.408 129.366 4.44 129.259 4.44H128.331C127.851 4.44 127.515 4.568 127.323 4.824C127.131 5.06933 127.035 5.448 127.035 5.96V6.68H129.099C129.206 6.68 129.291 6.71733 129.355 6.792C129.43 6.856 129.467 6.94133 129.467 7.048V7.592C129.467 7.69867 129.43 7.78933 129.355 7.864C129.291 7.928 129.206 7.96 129.099 7.96H127.035V14.632C127.035 14.7387 126.998 14.8293 126.923 14.904C126.859 14.968 126.774 15 126.667 15H125.915ZM134.12 15C132.434 15 131.592 14.0613 131.592 12.184V7.96H130.344C130.237 7.96 130.146 7.928 130.072 7.864C130.008 7.78933 129.976 7.69867 129.976 7.592V7.048C129.976 6.94133 130.008 6.856 130.072 6.792C130.146 6.71733 130.237 6.68 130.344 6.68H131.592V4.008C131.592 3.90133 131.624 3.816 131.688 3.752C131.762 3.67733 131.853 3.64 131.96 3.64H132.712C132.818 3.64 132.904 3.67733 132.968 3.752C133.042 3.816 133.08 3.90133 133.08 4.008V6.68H135.064C135.17 6.68 135.256 6.71733 135.32 6.792C135.394 6.856 135.432 6.94133 135.432 7.048V7.592C135.432 7.69867 135.394 7.78933 135.32 7.864C135.256 7.928 135.17 7.96 135.064 7.96H133.08V12.072C133.08 12.6053 133.17 13.0107 133.352 13.288C133.533 13.5547 133.832 13.688 134.248 13.688H135.224C135.33 13.688 135.416 13.7253 135.48 13.8C135.554 13.864 135.592 13.9493 135.592 14.056V14.632C135.592 14.7387 135.554 14.8293 135.48 14.904C135.416 14.968 135.33 15 135.224 15H134.12Z" fill="white"/>
<g filter="url(#filter5_dddd_1550_10077)">
<rect x="37" y="140" width="98" height="40" rx="20" fill="white"/>
<rect x="37" y="140" width="98" height="36" rx="18" fill="#92D5F1"/>
<mask id="mask0_1550_10077" style="mask-type:alpha" maskUnits="userSpaceOnUse" x="37" y="140" width="98" height="36">
<rect x="37" y="140" width="98" height="36" rx="18" fill="#92D5F1"/>
</mask>
<g mask="url(#mask0_1550_10077)">
<circle cx="86" cy="101" r="68" fill="#9DD9F2"/>
<circle cx="87" cy="87" r="68" fill="#A7DDF3"/>
</g>
<g filter="url(#filter6_bddd_1550_10077)">
<path d="M48.9296 145.54C34.9297 153.54 42.4296 167.707 48.9296 172.54C48.0962 171.54 42.4294 166.54 44.4294 159.04C47.3627 148.04 65.9293 159.54 70.9293 151.54C73.4293 147.54 65.0452 136.331 48.9296 145.54Z" fill="url(#paint6_linear_1550_10077)" fill-opacity="0.6"/>
</g>
<g filter="url(#filter7_bddd_1550_10077)">
<ellipse cx="121.599" cy="168.787" rx="6.65493" ry="3.71745" transform="rotate(-33.7262 121.599 168.787)" fill="url(#paint7_linear_1550_10077)" fill-opacity="0.6"/>
</g>
</g>
<path d="M70.9397 164C70.833 164 70.7424 163.968 70.6677 163.904C70.6037 163.829 70.5717 163.739 70.5717 163.632V153.184C70.5717 153.067 70.6037 152.976 70.6677 152.912C70.7424 152.837 70.833 152.8 70.9397 152.8H75.0037C76.209 152.8 77.1584 153.093 77.8517 153.68C78.545 154.267 78.8917 155.115 78.8917 156.224C78.8917 157.333 78.545 158.181 77.8517 158.768C77.169 159.344 76.2197 159.632 75.0037 159.632H72.1717V163.632C72.1717 163.739 72.1344 163.829 72.0597 163.904C71.985 163.968 71.8944 164 71.7877 164H70.9397ZM74.9237 158.288C75.7024 158.288 76.289 158.112 76.6837 157.76C77.089 157.408 77.2917 156.896 77.2917 156.224C77.2917 155.552 77.0944 155.04 76.6997 154.688C76.305 154.325 75.713 154.144 74.9237 154.144H72.1557V158.288H74.9237ZM81.0133 164C80.9066 164 80.816 163.968 80.7413 163.904C80.6773 163.829 80.6453 163.739 80.6453 163.632V153.008C80.6453 152.901 80.6773 152.816 80.7413 152.752C80.816 152.677 80.9066 152.64 81.0133 152.64H81.7653C81.872 152.64 81.9573 152.677 82.0213 152.752C82.096 152.816 82.1333 152.901 82.1333 153.008V163.632C82.1333 163.739 82.096 163.829 82.0213 163.904C81.9573 163.968 81.872 164 81.7653 164H81.0133ZM86.8399 164.16C86.3173 164.16 85.8319 164.053 85.3839 163.84C84.9359 163.627 84.5786 163.339 84.3119 162.976C84.0559 162.603 83.9279 162.192 83.9279 161.744C83.9279 161.04 84.2159 160.464 84.7919 160.016C85.3786 159.557 86.1679 159.259 87.1599 159.12L89.5439 158.784V158.32C89.5439 157.232 88.9199 156.688 87.6719 156.688C87.2026 156.688 86.8186 156.789 86.5199 156.992C86.2213 157.184 85.9973 157.413 85.8479 157.68C85.8159 157.776 85.7733 157.845 85.7199 157.888C85.6773 157.931 85.6133 157.952 85.5279 157.952H84.8399C84.7439 157.952 84.6586 157.92 84.5839 157.856C84.5199 157.781 84.4879 157.696 84.4879 157.6C84.4986 157.344 84.6159 157.056 84.8399 156.736C85.0746 156.405 85.4319 156.123 85.9119 155.888C86.3919 155.643 86.9839 155.52 87.6879 155.52C88.8826 155.52 89.7413 155.803 90.2639 156.368C90.7866 156.923 91.0479 157.616 91.0479 158.448V163.632C91.0479 163.739 91.0106 163.829 90.9359 163.904C90.8719 163.968 90.7866 164 90.6799 164H89.9439C89.8373 164 89.7466 163.968 89.6719 163.904C89.6079 163.829 89.5759 163.739 89.5759 163.632V162.944C89.3413 163.285 88.9999 163.573 88.5519 163.808C88.1039 164.043 87.5333 164.16 86.8399 164.16ZM87.1759 162.96C87.8693 162.96 88.4346 162.736 88.8719 162.288C89.3199 161.829 89.5439 161.173 89.5439 160.32V159.872L87.6879 160.144C86.9306 160.251 86.3599 160.432 85.9759 160.688C85.5919 160.933 85.3999 161.248 85.3999 161.632C85.3999 162.059 85.5759 162.389 85.9279 162.624C86.2799 162.848 86.6959 162.96 87.1759 162.96ZM94.6322 167.04C94.5469 167.04 94.4722 167.008 94.4082 166.944C94.3442 166.88 94.3122 166.805 94.3122 166.72C94.3122 166.645 94.3389 166.549 94.3922 166.432L95.6242 163.504L92.5682 156.288C92.5149 156.149 92.4882 156.059 92.4882 156.016C92.4882 155.92 92.5202 155.84 92.5842 155.776C92.6482 155.712 92.7282 155.68 92.8242 155.68H93.6082C93.7789 155.68 93.9069 155.771 93.9922 155.952L96.4242 161.776L98.9202 155.952C99.0055 155.771 99.1389 155.68 99.3202 155.68H100.072C100.168 155.68 100.248 155.712 100.312 155.776C100.376 155.84 100.408 155.915 100.408 156C100.408 156.032 100.382 156.128 100.328 156.288L95.7842 166.768C95.6989 166.949 95.5655 167.04 95.3842 167.04H94.6322Z" fill="white"/>
<defs>
<filter id="filter0_i_1550_10077" x="60.0176" y="59.5811" width="18.0215" height="20.0952" filterUnits="userSpaceOnUse" color-interpolation-filters="sRGB">
<feFlood flood-opacity="0" result="BackgroundImageFix"/>
<feBlend mode="normal" in="SourceGraphic" in2="BackgroundImageFix" result="shape"/>
<feColorMatrix in="SourceAlpha" type="matrix" values="0 0 0 0 0 0 0 0 0 0 0 0 0 0 0 0 0 0 127 0" result="hardAlpha"/>
<feOffset dx="-4" dy="4"/>
<feGaussianBlur stdDeviation="2"/>
<feComposite in2="hardAlpha" operator="arithmetic" k2="-1" k3="1"/>
<feColorMatrix type="matrix" values="0 0 0 0 0.176471 0 0 0 0 0.172549 0 0 0 0 0.176471 0 0 0 0.25 0"/>
<feBlend mode="normal" in2="shape" result="effect1_innerShadow_1550_10077"/>
</filter>
<filter id="filter1_i_1550_10077" x="96.8848" y="51.8643" width="30.0176" height="19.4297" filterUnits="userSpaceOnUse" color-interpolation-filters="sRGB">
<feFlood flood-opacity="0" result="BackgroundImageFix"/>
<feBlend mode="normal" in="SourceGraphic" in2="BackgroundImageFix" result="shape"/>
<feColorMatrix in="SourceAlpha" type="matrix" values="0 0 0 0 0 0 0 0 0 0 0 0 0 0 0 0 0 0 127 0" result="hardAlpha"/>
<feOffset dx="-4" dy="4"/>
<feGaussianBlur stdDeviation="2"/>
<feComposite in2="hardAlpha" operator="arithmetic" k2="-1" k3="1"/>
<feColorMatrix type="matrix" values="0 0 0 0 0.176471 0 0 0 0 0.172549 0 0 0 0 0.176471 0 0 0 0.25 0"/>
<feBlend mode="normal" in2="shape" result="effect1_innerShadow_1550_10077"/>
</filter>
<filter id="filter2_i_1550_10077" x="94.3125" y="71.584" width="13.8193" height="13.4067" filterUnits="userSpaceOnUse" color-interpolation-filters="sRGB">
<feFlood flood-opacity="0" result="BackgroundImageFix"/>
<feBlend mode="normal" in="SourceGraphic" in2="BackgroundImageFix" result="shape"/>
<feColorMatrix in="SourceAlpha" type="matrix" values="0 0 0 0 0 0 0 0 0 0 0 0 0 0 0 0 0 0 127 0" result="hardAlpha"/>
<feOffset dx="-4" dy="4"/>
<feGaussianBlur stdDeviation="2"/>
<feComposite in2="hardAlpha" operator="arithmetic" k2="-1" k3="1"/>
<feColorMatrix type="matrix" values="0 0 0 0 0.176471 0 0 0 0 0.172549 0 0 0 0 0.176471 0 0 0 0.25 0"/>
<feBlend mode="normal" in2="shape" result="effect1_innerShadow_1550_10077"/>
</filter>
<filter id="filter3_i_1550_10077" x="36.7246" y="102.325" width="10.5195" height="13.2622" filterUnits="userSpaceOnUse" color-interpolation-filters="sRGB">
<feFlood flood-opacity="0" result="BackgroundImageFix"/>
<feBlend mode="normal" in="SourceGraphic" in2="BackgroundImageFix" result="shape"/>
<feColorMatrix in="SourceAlpha" type="matrix" values="0 0 0 0 0 0 0 0 0 0 0 0 0 0 0 0 0 0 127 0" result="hardAlpha"/>
<feOffset dx="-4" dy="4"/>
<feGaussianBlur stdDeviation="2"/>
<feComposite in2="hardAlpha" operator="arithmetic" k2="-1" k3="1"/>
<feColorMatrix type="matrix" values="0 0 0 0 0.176471 0 0 0 0 0.172549 0 0 0 0 0.176471 0 0 0 0.25 0"/>
<feBlend mode="normal" in2="shape" result="effect1_innerShadow_1550_10077"/>
</filter>
<filter id="filter4_i_1550_10077" x="84.0244" y="126.457" width="16.2246" height="18.3057" filterUnits="userSpaceOnUse" color-interpolation-filters="sRGB">
<feFlood flood-opacity="0" result="BackgroundImageFix"/>
<feBlend mode="normal" in="SourceGraphic" in2="BackgroundImageFix" result="shape"/>
<feColorMatrix in="SourceAlpha" type="matrix" values="0 0 0 0 0 0 0 0 0 0 0 0 0 0 0 0 0 0 127 0" result="hardAlpha"/>
<feOffset dx="-4" dy="4"/>
<feGaussianBlur stdDeviation="2"/>
<feComposite in2="hardAlpha" operator="arithmetic" k2="-1" k3="1"/>
<feColorMatrix type="matrix" values="0 0 0 0 0.176471 0 0 0 0 0.172549 0 0 0 0 0.176471 0 0 0 0.25 0"/>
<feBlend mode="normal" in2="shape" result="effect1_innerShadow_1550_10077"/>
</filter>
<filter id="filter5_dddd_1550_10077" x="5" y="132" width="162" height="104" filterUnits="userSpaceOnUse" color-interpolation-filters="sRGB">
<feFlood flood-opacity="0" result="BackgroundImageFix"/>
<feColorMatrix in="SourceAlpha" type="matrix" values="0 0 0 0 0 0 0 0 0 0 0 0 0 0 0 0 0 0 127 0" result="hardAlpha"/>
<feOffset/>
<feGaussianBlur stdDeviation="0.5"/>
<feColorMatrix type="matrix" values="0 0 0 0 0.501961 0 0 0 0 0.764706 0 0 0 0 1 0 0 0 0.04 0"/>
<feBlend mode="normal" in2="BackgroundImageFix" result="effect1_dropShadow_1550_10077"/>
<feColorMatrix in="SourceAlpha" type="matrix" values="0 0 0 0 0 0 0 0 0 0 0 0 0 0 0 0 0 0 127 0" result="hardAlpha"/>
<feOffset dy="4"/>
<feGaussianBlur stdDeviation="4"/>
<feColorMatrix type="matrix" values="0 0 0 0 0.501961 0 0 0 0 0.764706 0 0 0 0 1 0 0 0 0.04 0"/>
<feBlend mode="normal" in2="effect1_dropShadow_1550_10077" result="effect2_dropShadow_1550_10077"/>
<feColorMatrix in="SourceAlpha" type="matrix" values="0 0 0 0 0 0 0 0 0 0 0 0 0 0 0 0 0 0 127 0" result="hardAlpha"/>
<feOffset dy="16"/>
<feGaussianBlur stdDeviation="12"/>
<feColorMatrix type="matrix" values="0 0 0 0 0.501961 0 0 0 0 0.764706 0 0 0 0 1 0 0 0 0.04 0"/>
<feBlend mode="normal" in2="effect2_dropShadow_1550_10077" result="effect3_dropShadow_1550_10077"/>
<feColorMatrix in="SourceAlpha" type="matrix" values="0 0 0 0 0 0 0 0 0 0 0 0 0 0 0 0 0 0 127 0" result="hardAlpha"/>
<feOffset dy="24"/>
<feGaussianBlur stdDeviation="16"/>
<feColorMatrix type="matrix" values="0 0 0 0 0.501961 0 0 0 0 0.764706 0 0 0 0 1 0 0 0 0.04 0"/>
<feBlend mode="normal" in2="effect3_dropShadow_1550_10077" result="effect4_dropShadow_1550_10077"/>
<feBlend mode="normal" in="SourceGraphic" in2="effect4_dropShadow_1550_10077" result="shape"/>
</filter>
<filter id="filter6_bddd_1550_10077" x="33" y="138" width="46.3652" height="46.54" filterUnits="userSpaceOnUse" color-interpolation-filters="sRGB">
<feFlood flood-opacity="0" result="BackgroundImageFix"/>
<feGaussianBlur in="BackgroundImage" stdDeviation="1"/>
<feComposite in2="SourceAlpha" operator="in" result="effect1_backgroundBlur_1550_10077"/>
<feColorMatrix in="SourceAlpha" type="matrix" values="0 0 0 0 0 0 0 0 0 0 0 0 0 0 0 0 0 0 127 0" result="hardAlpha"/>
<feOffset/>
<feGaussianBlur stdDeviation="0.5"/>
<feColorMatrix type="matrix" values="0 0 0 0 1 0 0 0 0 1 0 0 0 0 1 0 0 0 0.04 0"/>
<feBlend mode="normal" in2="effect1_backgroundBlur_1550_10077" result="effect2_dropShadow_1550_10077"/>
<feColorMatrix in="SourceAlpha" type="matrix" values="0 0 0 0 0 0 0 0 0 0 0 0 0 0 0 0 0 0 127 0" result="hardAlpha"/>
<feOffset/>
<feGaussianBlur stdDeviation="1"/>
<feColorMatrix type="matrix" values="0 0 0 0 1 0 0 0 0 1 0 0 0 0 1 0 0 0 0.06 0"/>
<feBlend mode="normal" in2="effect2_dropShadow_1550_10077" result="effect3_dropShadow_1550_10077"/>
<feColorMatrix in="SourceAlpha" type="matrix" values="0 0 0 0 0 0 0 0 0 0 0 0 0 0 0 0 0 0 127 0" result="hardAlpha"/>
<feOffset dy="4"/>
<feGaussianBlur stdDeviation="4"/>
<feColorMatrix type="matrix" values="0 0 0 0 1 0 0 0 0 1 0 0 0 0 1 0 0 0 0.04 0"/>
<feBlend mode="normal" in2="effect3_dropShadow_1550_10077" result="effect4_dropShadow_1550_10077"/>
<feBlend mode="normal" in="SourceGraphic" in2="effect4_dropShadow_1550_10077" result="shape"/>
</filter>
<filter id="filter7_bddd_1550_10077" x="107.69" y="159.969" width="27.8174" height="25.6362" filterUnits="userSpaceOnUse" color-interpolation-filters="sRGB">
<feFlood flood-opacity="0" result="BackgroundImageFix"/>
<feGaussianBlur in="BackgroundImage" stdDeviation="1"/>
<feComposite in2="SourceAlpha" operator="in" result="effect1_backgroundBlur_1550_10077"/>
<feColorMatrix in="SourceAlpha" type="matrix" values="0 0 0 0 0 0 0 0 0 0 0 0 0 0 0 0 0 0 127 0" result="hardAlpha"/>
<feOffset/>
<feGaussianBlur stdDeviation="0.5"/>
<feColorMatrix type="matrix" values="0 0 0 0 1 0 0 0 0 1 0 0 0 0 1 0 0 0 0.04 0"/>
<feBlend mode="normal" in2="effect1_backgroundBlur_1550_10077" result="effect2_dropShadow_1550_10077"/>
<feColorMatrix in="SourceAlpha" type="matrix" values="0 0 0 0 0 0 0 0 0 0 0 0 0 0 0 0 0 0 127 0" result="hardAlpha"/>
<feOffset/>
<feGaussianBlur stdDeviation="1"/>
<feColorMatrix type="matrix" values="0 0 0 0 1 0 0 0 0 1 0 0 0 0 1 0 0 0 0.06 0"/>
<feBlend mode="normal" in2="effect2_dropShadow_1550_10077" result="effect3_dropShadow_1550_10077"/>
<feColorMatrix in="SourceAlpha" type="matrix" values="0 0 0 0 0 0 0 0 0 0 0 0 0 0 0 0 0 0 127 0" result="hardAlpha"/>
<feOffset dy="4"/>
<feGaussianBlur stdDeviation="4"/>
<feColorMatrix type="matrix" values="0 0 0 0 1 0 0 0 0 1 0 0 0 0 1 0 0 0 0.04 0"/>
<feBlend mode="normal" in2="effect3_dropShadow_1550_10077" result="effect4_dropShadow_1550_10077"/>
<feBlend mode="normal" in="SourceGraphic" in2="effect4_dropShadow_1550_10077" result="shape"/>
</filter>
<linearGradient id="paint0_linear_1550_10077" x1="146.327" y1="150.463" x2="30.581" y2="34.7168" gradientUnits="userSpaceOnUse">
<stop stop-color="#F34510"/>
<stop offset="1" stop-color="#FFEF77"/>
</linearGradient>
<linearGradient id="paint1_linear_1550_10077" x1="77.7357" y1="59.5811" x2="64.0176" y2="75.8713" gradientUnits="userSpaceOnUse">
<stop stop-color="#FFB44F"/>
<stop offset="1" stop-color="#F34510"/>
</linearGradient>
<linearGradient id="paint2_linear_1550_10077" x1="117.924" y1="50.8002" x2="104.205" y2="67.0904" gradientUnits="userSpaceOnUse">
<stop stop-color="#FFB44F"/>
<stop offset="1" stop-color="#F34510"/>
</linearGradient>
<linearGradient id="paint3_linear_1550_10077" x1="107.919" y1="71.584" x2="100.264" y2="82.4764" gradientUnits="userSpaceOnUse">
<stop stop-color="#FFB44F"/>
<stop offset="1" stop-color="#F34510"/>
</linearGradient>
<linearGradient id="paint4_linear_1550_10077" x1="48.1469" y1="110.81" x2="39.1011" y2="109.629" gradientUnits="userSpaceOnUse">
<stop stop-color="#FFB44F"/>
<stop offset="1" stop-color="#F34510"/>
</linearGradient>
<linearGradient id="paint5_linear_1550_10077" x1="99.9841" y1="126.457" x2="87.7534" y2="140.703" gradientUnits="userSpaceOnUse">
<stop stop-color="#FFB44F"/>
<stop offset="1" stop-color="#F34510"/>
</linearGradient>
<linearGradient id="paint6_linear_1550_10077" x1="71.3649" y1="142" x2="40.8255" y2="172.364" gradientUnits="userSpaceOnUse">
<stop stop-color="white" stop-opacity="0.5"/>
<stop offset="1" stop-color="white" stop-opacity="0.2"/>
</linearGradient>
<linearGradient id="paint7_linear_1550_10077" x1="128.254" y1="165.07" x2="121.923" y2="176.403" gradientUnits="userSpaceOnUse">
<stop stop-color="white" stop-opacity="0.5"/>
<stop offset="1" stop-color="white" stop-opacity="0.2"/>
</linearGradient>
</defs>
</svg>
