<svg width="406" height="146" viewBox="0 0 406 146" fill="none" xmlns="http://www.w3.org/2000/svg">
<g filter="url(#filter0_dddd_1597_3318)">
<path d="M374 70V60C374 48.9543 365.046 40 354 40H254.441C246.313 40 238.993 44.919 235.923 52.4447L234.537 55.84C233.847 57.5318 233.013 59.1615 232.046 60.7114C228.135 66.9728 222.184 71.6933 215.197 74.0759L214.253 74.3978C206.957 76.8858 199.043 76.8858 191.747 74.3978L190.803 74.0759C183.816 71.6933 177.865 66.9728 173.954 60.7114C172.987 59.1615 172.153 57.5318 171.463 55.84L170.077 52.4447C167.007 44.919 159.687 40 151.559 40H52C40.9543 40 32 48.9543 32 60V70C32 81.0457 40.9543 90 52 90H354C365.046 90 374 81.0457 374 70Z" fill="white"/>
</g>
<path d="M306.271 72.64C306.271 73.5311 305.926 74.3858 305.313 75.0159C304.7 75.646 303.868 76 303.001 76C302.133 76 301.302 75.646 300.688 75.0159C300.075 74.3858 299.731 73.5311 299.731 72.64M311.772 70.9301C310.46 69.28 309.534 68.44 309.534 63.8909C309.534 59.725 307.464 58.2408 305.76 57.52C305.533 57.4244 305.32 57.205 305.251 56.9661C304.952 55.9208 304.114 55 303.001 55C301.887 55 301.048 55.9214 300.753 56.9672C300.684 57.2087 300.47 57.4244 300.244 57.52C298.538 58.2419 296.47 59.7208 296.47 63.8909C296.467 68.44 295.541 69.28 294.229 70.9301C293.685 71.6136 294.162 72.64 295.112 72.64H310.894C311.84 72.64 312.313 71.6105 311.772 70.9301Z" stroke="#BBBDC4" stroke-linecap="round" stroke-linejoin="round"/>
<g filter="url(#filter1_dddd_1597_3318)">
<circle cx="203" cy="38" r="30" fill="white"/>
</g>
<g filter="url(#filter2_ddd_1597_3318)">
<circle cx="202.922" cy="37.9219" r="13" transform="rotate(-15 202.922 37.9219)" fill="url(#paint0_linear_1597_3318)"/>
</g>
<g filter="url(#filter3_ddd_1597_3318)">
<circle cx="197.06" cy="37.57" r="1.85714" transform="rotate(-15 197.06 37.57)" fill="url(#paint1_linear_1597_3318)"/>
</g>
<g filter="url(#filter4_ddd_1597_3318)">
<path d="M204.517 45.666C206.913 45.024 208.452 42.7808 208.292 40.3961C208.255 39.8451 207.696 39.5269 207.162 39.6699L199.228 41.7959C198.694 41.9388 198.369 42.494 198.612 42.9898C199.666 45.135 202.121 46.308 204.517 45.666Z" fill="url(#paint2_linear_1597_3318)"/>
</g>
<g filter="url(#filter5_ddd_1597_3318)">
<path d="M208.959 35.3428C208.694 34.3521 207.675 33.7641 206.684 34.0296C205.694 34.2951 205.106 35.3134 205.371 36.3041" stroke="url(#paint3_linear_1597_3318)"/>
</g>
<path d="M112.463 57.3171L114.045 71.4351C114.256 73.3172 112.783 74.9643 110.89 74.9643C109.628 74.9643 108.486 74.2175 107.98 73.0617L107.643 72.2911C106.896 70.5826 105.208 69.4786 103.343 69.4786C101.478 69.4786 99.79 70.5826 99.0425 72.2911L98.8204 72.7989C98.2449 74.1143 96.9452 74.9643 95.5094 74.9643C93.3828 74.9643 91.7159 73.1373 91.9105 71.0196L93.1083 57.9828C93.2895 56.0098 94.9444 54.5 96.9258 54.5C97.4805 54.5 98.0286 54.6204 98.5323 54.8528L100.887 55.9397C102.349 56.6146 104.034 56.6146 105.497 55.9397L107.984 54.7918C108.4 54.5996 108.854 54.5 109.312 54.5C110.926 54.5 112.283 55.7129 112.463 57.3171Z" stroke="#BBBDC4"/>
<path d="M97.7348 60.0271V60.4414C97.7348 60.7175 97.511 60.9414 97.2348 60.9414H96.8205C96.3156 60.9414 95.9062 61.3507 95.9062 61.8556C95.9062 62.3606 96.3156 62.7699 96.8205 62.7699H97.2348C97.511 62.7699 97.7348 62.9938 97.7348 63.2699V63.6842C97.7348 64.1892 98.1442 64.5985 98.6491 64.5985C99.1541 64.5985 99.5634 64.1892 99.5634 63.6842V63.2699C99.5634 62.9938 99.7873 62.7699 100.063 62.7699H100.478C100.983 62.7699 101.392 62.3606 101.392 61.8556C101.392 61.3507 100.983 60.9414 100.478 60.9414H100.063C99.7873 60.9414 99.5634 60.7175 99.5634 60.4414V60.0271C99.5634 59.5221 99.1541 59.1128 98.6491 59.1128C98.1442 59.1128 97.7348 59.5221 97.7348 60.0271Z" stroke="#BBBDC4"/>
<circle cx="107.457" cy="62.093" r="2.58571" stroke="#BBBDC4"/>
<defs>
<filter id="filter0_dddd_1597_3318" x="0" y="32" width="406" height="114" filterUnits="userSpaceOnUse" color-interpolation-filters="sRGB">
<feFlood flood-opacity="0" result="BackgroundImageFix"/>
<feColorMatrix in="SourceAlpha" type="matrix" values="0 0 0 0 0 0 0 0 0 0 0 0 0 0 0 0 0 0 127 0" result="hardAlpha"/>
<feOffset/>
<feGaussianBlur stdDeviation="0.5"/>
<feColorMatrix type="matrix" values="0 0 0 0 1 0 0 0 0 1 0 0 0 0 1 0 0 0 0.04 0"/>
<feBlend mode="normal" in2="BackgroundImageFix" result="effect1_dropShadow_1597_3318"/>
<feColorMatrix in="SourceAlpha" type="matrix" values="0 0 0 0 0 0 0 0 0 0 0 0 0 0 0 0 0 0 127 0" result="hardAlpha"/>
<feOffset dy="4"/>
<feGaussianBlur stdDeviation="4"/>
<feColorMatrix type="matrix" values="0 0 0 0 1 0 0 0 0 1 0 0 0 0 1 0 0 0 0.04 0"/>
<feBlend mode="normal" in2="effect1_dropShadow_1597_3318" result="effect2_dropShadow_1597_3318"/>
<feColorMatrix in="SourceAlpha" type="matrix" values="0 0 0 0 0 0 0 0 0 0 0 0 0 0 0 0 0 0 127 0" result="hardAlpha"/>
<feOffset dy="16"/>
<feGaussianBlur stdDeviation="12"/>
<feColorMatrix type="matrix" values="0 0 0 0 1 0 0 0 0 1 0 0 0 0 1 0 0 0 0.04 0"/>
<feBlend mode="normal" in2="effect2_dropShadow_1597_3318" result="effect3_dropShadow_1597_3318"/>
<feColorMatrix in="SourceAlpha" type="matrix" values="0 0 0 0 0 0 0 0 0 0 0 0 0 0 0 0 0 0 127 0" result="hardAlpha"/>
<feOffset dy="24"/>
<feGaussianBlur stdDeviation="16"/>
<feColorMatrix type="matrix" values="0 0 0 0 1 0 0 0 0 1 0 0 0 0 1 0 0 0 0.04 0"/>
<feBlend mode="normal" in2="effect3_dropShadow_1597_3318" result="effect4_dropShadow_1597_3318"/>
<feBlend mode="normal" in="SourceGraphic" in2="effect4_dropShadow_1597_3318" result="shape"/>
</filter>
<filter id="filter1_dddd_1597_3318" x="141" y="0" width="124" height="124" filterUnits="userSpaceOnUse" color-interpolation-filters="sRGB">
<feFlood flood-opacity="0" result="BackgroundImageFix"/>
<feColorMatrix in="SourceAlpha" type="matrix" values="0 0 0 0 0 0 0 0 0 0 0 0 0 0 0 0 0 0 127 0" result="hardAlpha"/>
<feOffset/>
<feGaussianBlur stdDeviation="0.5"/>
<feColorMatrix type="matrix" values="0 0 0 0 1 0 0 0 0 1 0 0 0 0 1 0 0 0 0.04 0"/>
<feBlend mode="normal" in2="BackgroundImageFix" result="effect1_dropShadow_1597_3318"/>
<feColorMatrix in="SourceAlpha" type="matrix" values="0 0 0 0 0 0 0 0 0 0 0 0 0 0 0 0 0 0 127 0" result="hardAlpha"/>
<feOffset dy="4"/>
<feGaussianBlur stdDeviation="4"/>
<feColorMatrix type="matrix" values="0 0 0 0 1 0 0 0 0 1 0 0 0 0 1 0 0 0 0.04 0"/>
<feBlend mode="normal" in2="effect1_dropShadow_1597_3318" result="effect2_dropShadow_1597_3318"/>
<feColorMatrix in="SourceAlpha" type="matrix" values="0 0 0 0 0 0 0 0 0 0 0 0 0 0 0 0 0 0 127 0" result="hardAlpha"/>
<feOffset dy="16"/>
<feGaussianBlur stdDeviation="12"/>
<feColorMatrix type="matrix" values="0 0 0 0 1 0 0 0 0 1 0 0 0 0 1 0 0 0 0.04 0"/>
<feBlend mode="normal" in2="effect2_dropShadow_1597_3318" result="effect3_dropShadow_1597_3318"/>
<feColorMatrix in="SourceAlpha" type="matrix" values="0 0 0 0 0 0 0 0 0 0 0 0 0 0 0 0 0 0 127 0" result="hardAlpha"/>
<feOffset dy="24"/>
<feGaussianBlur stdDeviation="16"/>
<feColorMatrix type="matrix" values="0 0 0 0 1 0 0 0 0 1 0 0 0 0 1 0 0 0 0.04 0"/>
<feBlend mode="normal" in2="effect3_dropShadow_1597_3318" result="effect4_dropShadow_1597_3318"/>
<feBlend mode="normal" in="SourceGraphic" in2="effect4_dropShadow_1597_3318" result="shape"/>
</filter>
<filter id="filter2_ddd_1597_3318" x="181.918" y="20.9185" width="42.0078" height="42.0068" filterUnits="userSpaceOnUse" color-interpolation-filters="sRGB">
<feFlood flood-opacity="0" result="BackgroundImageFix"/>
<feColorMatrix in="SourceAlpha" type="matrix" values="0 0 0 0 0 0 0 0 0 0 0 0 0 0 0 0 0 0 127 0" result="hardAlpha"/>
<feOffset/>
<feGaussianBlur stdDeviation="0.5"/>
<feColorMatrix type="matrix" values="0 0 0 0 0.176471 0 0 0 0 0.172549 0 0 0 0 0.176471 0 0 0 0.04 0"/>
<feBlend mode="normal" in2="BackgroundImageFix" result="effect1_dropShadow_1597_3318"/>
<feColorMatrix in="SourceAlpha" type="matrix" values="0 0 0 0 0 0 0 0 0 0 0 0 0 0 0 0 0 0 127 0" result="hardAlpha"/>
<feOffset/>
<feGaussianBlur stdDeviation="1"/>
<feColorMatrix type="matrix" values="0 0 0 0 0.176471 0 0 0 0 0.172549 0 0 0 0 0.176471 0 0 0 0.06 0"/>
<feBlend mode="normal" in2="effect1_dropShadow_1597_3318" result="effect2_dropShadow_1597_3318"/>
<feColorMatrix in="SourceAlpha" type="matrix" values="0 0 0 0 0 0 0 0 0 0 0 0 0 0 0 0 0 0 127 0" result="hardAlpha"/>
<feOffset dy="4"/>
<feGaussianBlur stdDeviation="4"/>
<feColorMatrix type="matrix" values="0 0 0 0 0.176471 0 0 0 0 0.172549 0 0 0 0 0.176471 0 0 0 0.04 0"/>
<feBlend mode="normal" in2="effect2_dropShadow_1597_3318" result="effect3_dropShadow_1597_3318"/>
<feBlend mode="normal" in="SourceGraphic" in2="effect3_dropShadow_1597_3318" result="shape"/>
</filter>
<filter id="filter3_ddd_1597_3318" x="187.201" y="31.7124" width="19.7168" height="19.7153" filterUnits="userSpaceOnUse" color-interpolation-filters="sRGB">
<feFlood flood-opacity="0" result="BackgroundImageFix"/>
<feColorMatrix in="SourceAlpha" type="matrix" values="0 0 0 0 0 0 0 0 0 0 0 0 0 0 0 0 0 0 127 0" result="hardAlpha"/>
<feOffset/>
<feGaussianBlur stdDeviation="0.5"/>
<feColorMatrix type="matrix" values="0 0 0 0 0.176471 0 0 0 0 0.172549 0 0 0 0 0.176471 0 0 0 0.04 0"/>
<feBlend mode="normal" in2="BackgroundImageFix" result="effect1_dropShadow_1597_3318"/>
<feColorMatrix in="SourceAlpha" type="matrix" values="0 0 0 0 0 0 0 0 0 0 0 0 0 0 0 0 0 0 127 0" result="hardAlpha"/>
<feOffset/>
<feGaussianBlur stdDeviation="1"/>
<feColorMatrix type="matrix" values="0 0 0 0 0.176471 0 0 0 0 0.172549 0 0 0 0 0.176471 0 0 0 0.06 0"/>
<feBlend mode="normal" in2="effect1_dropShadow_1597_3318" result="effect2_dropShadow_1597_3318"/>
<feColorMatrix in="SourceAlpha" type="matrix" values="0 0 0 0 0 0 0 0 0 0 0 0 0 0 0 0 0 0 127 0" result="hardAlpha"/>
<feOffset dy="4"/>
<feGaussianBlur stdDeviation="4"/>
<feColorMatrix type="matrix" values="0 0 0 0 0.176471 0 0 0 0 0.172549 0 0 0 0 0.176471 0 0 0 0.04 0"/>
<feBlend mode="normal" in2="effect2_dropShadow_1597_3318" result="effect3_dropShadow_1597_3318"/>
<feBlend mode="normal" in="SourceGraphic" in2="effect3_dropShadow_1597_3318" result="shape"/>
</filter>
<filter id="filter4_ddd_1597_3318" x="190.529" y="35.6357" width="25.7734" height="22.2056" filterUnits="userSpaceOnUse" color-interpolation-filters="sRGB">
<feFlood flood-opacity="0" result="BackgroundImageFix"/>
<feColorMatrix in="SourceAlpha" type="matrix" values="0 0 0 0 0 0 0 0 0 0 0 0 0 0 0 0 0 0 127 0" result="hardAlpha"/>
<feOffset/>
<feGaussianBlur stdDeviation="0.5"/>
<feColorMatrix type="matrix" values="0 0 0 0 0.176471 0 0 0 0 0.172549 0 0 0 0 0.176471 0 0 0 0.04 0"/>
<feBlend mode="normal" in2="BackgroundImageFix" result="effect1_dropShadow_1597_3318"/>
<feColorMatrix in="SourceAlpha" type="matrix" values="0 0 0 0 0 0 0 0 0 0 0 0 0 0 0 0 0 0 127 0" result="hardAlpha"/>
<feOffset/>
<feGaussianBlur stdDeviation="1"/>
<feColorMatrix type="matrix" values="0 0 0 0 0.176471 0 0 0 0 0.172549 0 0 0 0 0.176471 0 0 0 0.06 0"/>
<feBlend mode="normal" in2="effect1_dropShadow_1597_3318" result="effect2_dropShadow_1597_3318"/>
<feColorMatrix in="SourceAlpha" type="matrix" values="0 0 0 0 0 0 0 0 0 0 0 0 0 0 0 0 0 0 127 0" result="hardAlpha"/>
<feOffset dy="4"/>
<feGaussianBlur stdDeviation="4"/>
<feColorMatrix type="matrix" values="0 0 0 0 0.176471 0 0 0 0 0.172549 0 0 0 0 0.176471 0 0 0 0.04 0"/>
<feBlend mode="normal" in2="effect2_dropShadow_1597_3318" result="effect3_dropShadow_1597_3318"/>
<feBlend mode="normal" in="SourceGraphic" in2="effect3_dropShadow_1597_3318" result="shape"/>
</filter>
<filter id="filter5_ddd_1597_3318" x="196.807" y="29.4658" width="20.6348" height="18.9678" filterUnits="userSpaceOnUse" color-interpolation-filters="sRGB">
<feFlood flood-opacity="0" result="BackgroundImageFix"/>
<feColorMatrix in="SourceAlpha" type="matrix" values="0 0 0 0 0 0 0 0 0 0 0 0 0 0 0 0 0 0 127 0" result="hardAlpha"/>
<feOffset/>
<feGaussianBlur stdDeviation="0.5"/>
<feColorMatrix type="matrix" values="0 0 0 0 0.176471 0 0 0 0 0.172549 0 0 0 0 0.176471 0 0 0 0.04 0"/>
<feBlend mode="normal" in2="BackgroundImageFix" result="effect1_dropShadow_1597_3318"/>
<feColorMatrix in="SourceAlpha" type="matrix" values="0 0 0 0 0 0 0 0 0 0 0 0 0 0 0 0 0 0 127 0" result="hardAlpha"/>
<feOffset/>
<feGaussianBlur stdDeviation="1"/>
<feColorMatrix type="matrix" values="0 0 0 0 0.176471 0 0 0 0 0.172549 0 0 0 0 0.176471 0 0 0 0.06 0"/>
<feBlend mode="normal" in2="effect1_dropShadow_1597_3318" result="effect2_dropShadow_1597_3318"/>
<feColorMatrix in="SourceAlpha" type="matrix" values="0 0 0 0 0 0 0 0 0 0 0 0 0 0 0 0 0 0 127 0" result="hardAlpha"/>
<feOffset dy="4"/>
<feGaussianBlur stdDeviation="4"/>
<feColorMatrix type="matrix" values="0 0 0 0 0.176471 0 0 0 0 0.172549 0 0 0 0 0.176471 0 0 0 0.04 0"/>
<feBlend mode="normal" in2="effect2_dropShadow_1597_3318" result="effect3_dropShadow_1597_3318"/>
<feBlend mode="normal" in="SourceGraphic" in2="effect3_dropShadow_1597_3318" result="shape"/>
</filter>
<linearGradient id="paint0_linear_1597_3318" x1="190.012" y1="24.5737" x2="215.358" y2="51.6316" gradientUnits="userSpaceOnUse">
<stop offset="0.219337" stop-color="#92D5F1"/>
<stop offset="0.790678" stop-color="#5D6EFE"/>
</linearGradient>
<linearGradient id="paint1_linear_1597_3318" x1="199.134" y1="35.9316" x2="199.43" y2="38.8277" gradientUnits="userSpaceOnUse">
<stop stop-color="#FFEF77"/>
<stop offset="1" stop-color="#FFB44F"/>
</linearGradient>
<linearGradient id="paint2_linear_1597_3318" x1="208.783" y1="39.5467" x2="210.02" y2="43.3701" gradientUnits="userSpaceOnUse">
<stop stop-color="#FFEF77"/>
<stop offset="1" stop-color="#FFB44F"/>
</linearGradient>
<linearGradient id="paint3_linear_1597_3318" x1="206.844" y1="33.2472" x2="207.491" y2="35.6621" gradientUnits="userSpaceOnUse">
<stop stop-color="#FFEF77"/>
<stop offset="1" stop-color="#FFB44F"/>
</linearGradient>
</defs>
</svg>
