<svg width="15" height="17" viewBox="0 0 15 17" fill="none" xmlns="http://www.w3.org/2000/svg">
<path d="M7.79004 16.2793C12.2051 16.2793 14.8262 13.6904 14.8262 9.44727V7.50293H7.91895V10.2959H11.0234L11.0127 10.4893C10.8838 12.0469 9.65918 13.0137 7.87598 13.0137C5.60938 13.0137 4.14844 11.252 4.14844 8.17969V8.16895C4.14844 5.16113 5.46973 3.48535 7.7041 3.48535C9.21875 3.48535 10.3252 4.22656 10.7334 5.4834L10.7656 5.59082H14.665L14.6436 5.46191C14.2354 2.4541 11.4961 0.219727 7.69336 0.219727C3.02051 0.219727 0.130859 3.18457 0.130859 8.21191V8.22266C0.130859 13.3252 3.00977 16.2793 7.79004 16.2793Z" fill="white"/>
</svg>
