<svg width="14" height="16" viewBox="0 0 14 16" fill="none" xmlns="http://www.w3.org/2000/svg">
<path d="M7.42622 4.32457C11.2316 2.94079 13.1501 4.757 13.4384 5.62187C10.3249 9.77324 12.4294 11.6759 13.8709 12.1084C13.8709 12.2525 13.3519 13.1462 13.006 13.8381C12.0463 15.7576 10.0208 16.4327 8.2911 15.5679C6.56136 14.703 5.26406 16.0003 4.39918 16.0003C2.63173 16.0003 0.469596 13.4057 0.0371623 8.6489C-0.395272 3.89213 3.06416 3.02726 4.39918 3.4597C5.63336 3.85947 6.12892 4.757 7.42622 4.32457Z" fill="white"/>
<path d="M6.51953 3.89191C6.66368 2.73875 7.55737 0.345947 9.979 0C9.979 1.15316 9.28711 3.54596 6.51953 3.89191Z" fill="white"/>
</svg>
