<svg width="360" height="158" fill="none" xmlns="http://www.w3.org/2000/svg"><g filter="url(#a)"><path d="M9 125.282v-43.45c0-4.863 4.858-8.229 9.411-6.521l6.511 2.441a49.578 49.578 0 0 0 32.44.823C73.823 73.338 85 58.051 85 40.78V26.96C85 14.832 94.832 5 106.96 5H331c11.046 0 20 8.954 20 20v100.282c0 11.045-8.954 20-20 20H29c-11.046 0-20-8.955-20-20Z" fill="url(#b)"/><path d="M9 125.282v-43.45c0-4.863 4.858-8.229 9.411-6.521l6.511 2.441a49.578 49.578 0 0 0 32.44.823C73.823 73.338 85 58.051 85 40.78V26.96C85 14.832 94.832 5 106.96 5H331c11.046 0 20 8.954 20 20v100.282c0 11.045-8.954 20-20 20H29c-11.046 0-20-8.955-20-20Z" stroke="#92D5F1" stroke-width=".5"/></g><defs><linearGradient id="b" x1="351" y1="5" x2="252.492" y2="245.157" gradientUnits="userSpaceOnUse"><stop stop-color="#92D5F1" stop-opacity=".01"/><stop offset="1" stop-color="#92D5F1" stop-opacity=".1"/></linearGradient><filter id="a" x=".75" y="-1.25" width="358.5" height="158.782" filterUnits="userSpaceOnUse" color-interpolation-filters="sRGB"><feFlood flood-opacity="0" result="BackgroundImageFix"/><feGaussianBlur in="BackgroundImage" stdDeviation="3"/><feComposite in2="SourceAlpha" operator="in" result="effect1_backgroundBlur_1550_11129"/><feColorMatrix in="SourceAlpha" values="0 0 0 0 0 0 0 0 0 0 0 0 0 0 0 0 0 0 127 0" result="hardAlpha"/><feOffset/><feGaussianBlur stdDeviation=".5"/><feColorMatrix values="0 0 0 0 0.572549 0 0 0 0 0.835294 0 0 0 0 0.945098 0 0 0 0.04 0"/><feBlend in2="effect1_backgroundBlur_1550_11129" result="effect2_dropShadow_1550_11129"/><feColorMatrix in="SourceAlpha" values="0 0 0 0 0 0 0 0 0 0 0 0 0 0 0 0 0 0 127 0" result="hardAlpha"/><feOffset/><feGaussianBlur stdDeviation="1"/><feColorMatrix values="0 0 0 0 0.572549 0 0 0 0 0.835294 0 0 0 0 0.945098 0 0 0 0.06 0"/><feBlend in2="effect2_dropShadow_1550_11129" result="effect3_dropShadow_1550_11129"/><feColorMatrix in="SourceAlpha" values="0 0 0 0 0 0 0 0 0 0 0 0 0 0 0 0 0 0 127 0" result="hardAlpha"/><feOffset dy="4"/><feGaussianBlur stdDeviation="4"/><feColorMatrix values="0 0 0 0 0.572549 0 0 0 0 0.835294 0 0 0 0 0.945098 0 0 0 0.04 0"/><feBlend in2="effect3_dropShadow_1550_11129" result="effect4_dropShadow_1550_11129"/><feBlend in="SourceGraphic" in2="effect4_dropShadow_1550_11129" result="shape"/></filter></defs></svg>