<svg width="50" height="50" viewBox="0 0 50 50" fill="none" xmlns="http://www.w3.org/2000/svg">
<g filter="url(#filter0_d_1597_3437)">
<path d="M29.6415 23.6015C25.685 20.9533 22.6011 17.986 19.8819 14.9871C19.5723 14.6457 19.0119 14.864 19.0409 15.3239C19.2907 19.2798 20.6475 21.9192 22.1284 23.7999C22.4399 24.1956 22.4397 24.7569 22.1426 25.1636C20.663 27.1889 19.304 30.5185 19.0445 34.597C19.0147 35.0662 19.5913 35.2758 19.8896 34.9124C23.2856 30.7745 25.7478 27.9964 29.6438 25.3543C30.2586 24.9374 30.2588 24.0147 29.6415 23.6015Z" fill="#92D5F1"/>
</g>
<g filter="url(#filter1_d_1597_3437)">
<circle r="18.75" transform="matrix(-1 0 0 1 25 25)" stroke="url(#paint0_linear_1597_3437)" stroke-width="0.5" shape-rendering="crispEdges"/>
</g>
<defs>
<filter id="filter0_d_1597_3437" x="9.03906" y="4.82031" width="31.0664" height="40.2764" filterUnits="userSpaceOnUse" color-interpolation-filters="sRGB">
<feFlood flood-opacity="0" result="BackgroundImageFix"/>
<feColorMatrix in="SourceAlpha" type="matrix" values="0 0 0 0 0 0 0 0 0 0 0 0 0 0 0 0 0 0 127 0" result="hardAlpha"/>
<feOffset/>
<feGaussianBlur stdDeviation="5"/>
<feComposite in2="hardAlpha" operator="out"/>
<feColorMatrix type="matrix" values="0 0 0 0 0.572549 0 0 0 0 0.835294 0 0 0 0 0.945098 0 0 0 1 0"/>
<feBlend mode="normal" in2="BackgroundImageFix" result="effect1_dropShadow_1597_3437"/>
<feBlend mode="normal" in="SourceGraphic" in2="effect1_dropShadow_1597_3437" result="shape"/>
</filter>
<filter id="filter1_d_1597_3437" x="0" y="0" width="50" height="50" filterUnits="userSpaceOnUse" color-interpolation-filters="sRGB">
<feFlood flood-opacity="0" result="BackgroundImageFix"/>
<feColorMatrix in="SourceAlpha" type="matrix" values="0 0 0 0 0 0 0 0 0 0 0 0 0 0 0 0 0 0 127 0" result="hardAlpha"/>
<feOffset/>
<feGaussianBlur stdDeviation="3"/>
<feComposite in2="hardAlpha" operator="out"/>
<feColorMatrix type="matrix" values="0 0 0 0 0.572549 0 0 0 0 0.835294 0 0 0 0 0.945098 0 0 0 1 0"/>
<feBlend mode="normal" in2="BackgroundImageFix" result="effect1_dropShadow_1597_3437"/>
<feBlend mode="normal" in="SourceGraphic" in2="effect1_dropShadow_1597_3437" result="shape"/>
</filter>
<linearGradient id="paint0_linear_1597_3437" x1="9.5" y1="6.10714" x2="38" y2="38" gradientUnits="userSpaceOnUse">
<stop stop-color="#92D5F1" stop-opacity="0"/>
<stop offset="1" stop-color="#92D5F1" stop-opacity="0.5"/>
</linearGradient>
</defs>
</svg>
